<svg xmlns="http://www.w3.org/2000/svg" xmlns:xlink="http://www.w3.org/1999/xlink" preserveAspectRatio="xMidYMid meet" version="1.0" viewBox="47.5 11.7 93.1 174.6" zoomAndPan="magnify" style="fill: rgb(0, 0, 0);" original_string_length="6113" width="134.58545454545455px" height="253.50000000000003px"><g id="__id0_sqkvdoz24"><path d="M52.79,99.7a1.67,1.67,0,0,1-.66-3.21l15.94-6.77L84.35,53a1.66,1.66,0,0,1,2.33-.79l14.69,8.05,15.78-32.9a1.71,1.71,0,0,1,.56-.66l16.55-11.39a1.67,1.67,0,1,1,1.89,2.75L120,29.22l-16.35,34.1a1.69,1.69,0,0,1-1,.87,1.67,1.67,0,0,1-1.31-.13L86.67,56,70.86,91.68a1.63,1.63,0,0,1-.87.86l-16.55,7A1.68,1.68,0,0,1,52.79,99.7Z" style="fill: rgb(26, 26, 26);"/></g><g id="__id1_sqkvdoz24"><path d="M118.44,129.44a1.67,1.67,0,0,1-1.67-1.67V60.1a1.67,1.67,0,0,1,3.34,0v67.67A1.67,1.67,0,0,1,118.44,129.44Z" style="fill: rgb(26, 26, 26);"/></g><g id="__id2_sqkvdoz24"><path d="M114.46 86.32H122.72V112.85999999999999H114.46z" transform="rotate(180 118.59 99.59)" style="fill: rgb(250, 254, 255);"/></g><g id="__id3_sqkvdoz24"><path d="M117.25 86.32H122.71V112.85999999999999H117.25z" transform="rotate(180 119.985 99.59)" style="fill: rgb(103, 172, 91);"/></g><g id="__id4_sqkvdoz24"><path d="M135.28,129.57a1.68,1.68,0,0,1-1.67-1.68v-90a1.67,1.67,0,1,1,3.34,0v90A1.68,1.68,0,0,1,135.28,129.57Z" style="fill: rgb(26, 26, 26);"/></g><g id="__id5_sqkvdoz24"><path d="M69.39,169.33a1.67,1.67,0,0,1-1.67-1.68v-55a1.67,1.67,0,0,1,3.34,0v55A1.68,1.68,0,0,1,69.39,169.33Z" style="fill: rgb(26, 26, 26);"/></g><g id="__id6_sqkvdoz24"><path d="M53.18,186.26a1.67,1.67,0,0,1-1.67-1.68V111.76a1.67,1.67,0,0,1,3.34,0v72.82A1.68,1.68,0,0,1,53.18,186.26Z" style="fill: rgb(26, 26, 26);"/></g><g id="__id7_sqkvdoz24"><path d="M85.81,145.9a1.67,1.67,0,0,1-1.67-1.67V74.36a1.67,1.67,0,1,1,3.34,0v69.87A1.67,1.67,0,0,1,85.81,145.9Z" style="fill: rgb(26, 26, 26);"/></g><g id="__id8_sqkvdoz24"><path d="M131.28 56.67H138.87V120.03H131.28z" transform="rotate(179.85 135.08 88.357)" style="fill: rgb(250, 254, 255);"/></g><g id="__id9_sqkvdoz24"><path d="M134.27 56.67H138.88000000000002V120.03H134.27z" transform="rotate(179.85 136.57 88.354)" style="fill: rgb(103, 172, 91);"/></g><g id="__id10_sqkvdoz24"><path d="M81.83 79.07H89.78999999999999V112.07999999999998H81.83z" transform="rotate(180 85.81 95.575)" style="fill: rgb(250, 254, 255);"/></g><g id="__id11_sqkvdoz24"><path d="M84.47 79.07H89.78999999999999V112.07999999999998H84.47z" transform="rotate(180 87.135 95.575)" style="fill: rgb(103, 172, 91);"/></g><g id="__id12_sqkvdoz24"><path d="M65.51 119.35H73.47V159.48H65.51z" transform="rotate(180 69.49 139.415)" style="fill: rgb(250, 254, 255);"/></g><g id="__id13_sqkvdoz24"><path d="M68.4 119.35H73.48V159.48H68.4z" transform="rotate(180 70.935 139.415)" style="fill: rgb(103, 172, 91);"/></g><g id="__id14_sqkvdoz24"><path d="M49.2 140.57H57.160000000000004V180.7H49.2z" transform="rotate(180 53.18 160.64)" style="fill: rgb(250, 254, 255);"/></g><g id="__id15_sqkvdoz24"><path d="M52.01 140.57H57.16V180.7H52.01z" transform="rotate(180 54.585 160.64)" style="fill: rgb(103, 172, 91);"/></g><g id="__id16_sqkvdoz24"><path d="M131.36,121.72a1.68,1.68,0,0,1-1.67-1.67l-.16-63.36A1.67,1.67,0,0,1,131.2,55l7.59,0h0a1.68,1.68,0,0,1,1.68,1.67l.16,63.36A1.69,1.69,0,0,1,139,121.7l-7.59,0Zm1.52-63.37.15,60h4.25l-.15-60Z" style="fill: rgb(26, 26, 26);"/></g><g id="__id17_sqkvdoz24"><path d="M122.72,114.53h-8.26a1.67,1.67,0,0,1-1.67-1.67V86.32a1.67,1.67,0,0,1,1.67-1.67h8.26a1.67,1.67,0,0,1,1.67,1.67v26.54A1.67,1.67,0,0,1,122.72,114.53Zm-6.59-3.34H121V88h-4.91Z" style="fill: rgb(26, 26, 26);"/></g><g id="__id18_sqkvdoz24"><path d="M89.79,113.75h-8a1.67,1.67,0,0,1-1.67-1.67v-33a1.67,1.67,0,0,1,1.67-1.67h8a1.67,1.67,0,0,1,1.67,1.67v33A1.67,1.67,0,0,1,89.79,113.75Zm-6.29-3.34h4.62V80.74H83.5Z" style="fill: rgb(26, 26, 26);"/></g><g id="__id19_sqkvdoz24"><path d="M73.47,161.15h-8a1.67,1.67,0,0,1-1.67-1.67V119.35a1.67,1.67,0,0,1,1.67-1.67h8a1.68,1.68,0,0,1,1.68,1.67v40.13A1.68,1.68,0,0,1,73.47,161.15Zm-6.29-3.34H71.8V121H67.18Z" style="fill: rgb(26, 26, 26);"/></g><g id="__id20_sqkvdoz24"><path d="M57.16,182.38h-8a1.68,1.68,0,0,1-1.68-1.67V140.57a1.68,1.68,0,0,1,1.68-1.67h8a1.67,1.67,0,0,1,1.67,1.67v40.14A1.67,1.67,0,0,1,57.16,182.38ZM50.87,179h4.62V142.25H50.87Z" style="fill: rgb(26, 26, 26);"/></g><g id="__id21_sqkvdoz24"><path d="M101.92,143.13a1.67,1.67,0,0,1-1.67-1.67V68.53a1.67,1.67,0,1,1,3.34,0v72.93A1.67,1.67,0,0,1,101.92,143.13Z" style="fill: rgb(26, 26, 26);"/></g><g id="__id22_sqkvdoz24"><path d="M106.11,112.85h-8a1.68,1.68,0,0,1,0-3.35h8a1.68,1.68,0,0,1,0,3.35Z" style="fill: rgb(26, 26, 26);"/></g><g id="__id23_sqkvdoz24"><circle cx="52.79" cy="98.03" r="2.97" transform="rotate(-9.22 52.763 97.997)" style="fill: rgb(250, 254, 255);"/></g><g id="__id24_sqkvdoz24"><circle cx="69.33" cy="91" r="2.97" style="fill: rgb(250, 254, 255);"/></g><g id="__id25_sqkvdoz24"><circle cx="85.88" cy="53.7" r="2.97" transform="rotate(-67.5 85.877 53.7)" style="fill: rgb(250, 254, 255);"/></g><g id="__id26_sqkvdoz24"><circle cx="102.11" cy="62.6" r="2.97" style="fill: rgb(250, 254, 255);"/></g><g id="__id27_sqkvdoz24"><circle cx="118.66" cy="28.1" r="2.97" transform="rotate(-13.28 118.666 28.093)" style="fill: rgb(250, 254, 255);"/></g><g id="__id28_sqkvdoz24"><circle cx="135.2" cy="16.7" r="2.97" style="fill: rgb(250, 254, 255);"/></g><g id="__id29_sqkvdoz24"><path d="M52.79,102.67A4.64,4.64,0,1,1,57.42,98,4.64,4.64,0,0,1,52.79,102.67Zm0-5.93A1.29,1.29,0,1,0,54.08,98,1.3,1.3,0,0,0,52.79,96.74Z" style="fill: rgb(26, 26, 26);"/></g><g id="__id30_sqkvdoz24"><path d="M69.33,95.64A4.64,4.64,0,1,1,74,91,4.65,4.65,0,0,1,69.33,95.64Zm0-5.93A1.3,1.3,0,1,0,70.63,91,1.29,1.29,0,0,0,69.33,89.71Z" style="fill: rgb(26, 26, 26);"/></g><g id="__id31_sqkvdoz24"><path d="M85.88,58.34a4.64,4.64,0,1,1,4.64-4.64A4.64,4.64,0,0,1,85.88,58.34Zm0-5.94a1.3,1.3,0,1,0,1.29,1.3A1.3,1.3,0,0,0,85.88,52.4Z" style="fill: rgb(26, 26, 26);"/></g><g id="__id32_sqkvdoz24"><path d="M102.11,67.23a4.64,4.64,0,1,1,4.64-4.63A4.65,4.65,0,0,1,102.11,67.23Zm0-5.93a1.3,1.3,0,1,0,1.3,1.3A1.3,1.3,0,0,0,102.11,61.3Z" style="fill: rgb(26, 26, 26);"/></g><g id="__id33_sqkvdoz24"><path d="M118.66,32.74a4.64,4.64,0,1,1,4.64-4.64A4.64,4.64,0,0,1,118.66,32.74Zm0-5.94A1.3,1.3,0,1,0,120,28.1,1.3,1.3,0,0,0,118.66,26.8Z" style="fill: rgb(26, 26, 26);"/></g><g id="__id34_sqkvdoz24"><path d="M135.2,21.34a4.64,4.64,0,1,1,4.64-4.64A4.64,4.64,0,0,1,135.2,21.34Zm0-5.93a1.3,1.3,0,1,0,1.3,1.29A1.29,1.29,0,0,0,135.2,15.41Z" style="fill: rgb(26, 26, 26);"/></g></svg>