<svg xmlns="http://www.w3.org/2000/svg" xmlns:xlink="http://www.w3.org/1999/xlink" preserveAspectRatio="xMidYMid meet" version="1.0" viewBox="34.1 28.5 133.2 141.4" zoomAndPan="magnify" style="fill: rgb(0, 0, 0);" original_string_length="3462" width="450px" height="476.87861271676303px"><g id="__id0_sb8ja45ch4"><path d="M148.42,114.21a1.67,1.67,0,0,1-1.67-1.68V30.15a1.67,1.67,0,0,1,3.34,0v82.38A1.68,1.68,0,0,1,148.42,114.21Z" style="fill: rgb(26, 26, 26);"/></g><g id="__id1_sb8ja45ch4"><path d="M142.33 35.16H154.96V97.58H142.33z" transform="rotate(180 148.64 66.37)" style="fill: rgb(250, 254, 255);"/></g><g id="__id2_sb8ja45ch4"><path d="M145.64 35.16H154.95V97.58H145.64z" transform="rotate(180 150.3 66.37)" style="fill: rgb(103, 172, 91);"/></g><g id="__id3_sb8ja45ch4"><path d="M78.15,148.13a1.68,1.68,0,0,1-1.68-1.67V62.29a1.68,1.68,0,0,1,3.35,0v84.17A1.67,1.67,0,0,1,78.15,148.13Z" style="fill: rgb(26, 26, 26);"/></g><g id="__id4_sb8ja45ch4"><path d="M53.11,159.82a1.67,1.67,0,0,1-1.67-1.67V106.33a1.67,1.67,0,1,1,3.34,0v51.82A1.67,1.67,0,0,1,53.11,159.82Z" style="fill: rgb(26, 26, 26);"/></g><g id="__id5_sb8ja45ch4"><path d="M103,124a1.68,1.68,0,0,1-1.67-1.68V78.62a1.67,1.67,0,0,1,3.34,0v43.7A1.68,1.68,0,0,1,103,124Z" style="fill: rgb(26, 26, 26);"/></g><g id="__id6_sb8ja45ch4"><path d="M96.94 87.11H109.12V113.66H96.94z" transform="rotate(180 103.03 100.385)" style="fill: rgb(250, 254, 255);"/></g><g id="__id7_sb8ja45ch4"><path d="M100.51 87.11H109.12V113.66H100.51z" transform="rotate(180 104.815 100.385)" style="fill: rgb(238, 95, 89);"/></g><g id="__id8_sb8ja45ch4"><path d="M71.98 80.43H84.16V141.83H71.98z" transform="rotate(180 78.065 111.135)" style="fill: rgb(250, 254, 255);"/></g><g id="__id9_sb8ja45ch4"><path d="M75.43 80.43H84.15V141.83H75.43z" transform="rotate(180 79.795 111.135)" style="fill: rgb(103, 172, 91);"/></g><g id="__id10_sb8ja45ch4"><path d="M47.02 111.18H59.2V143.56H47.02z" transform="rotate(180 53.11 127.37)" style="fill: rgb(250, 254, 255);"/></g><g id="__id11_sb8ja45ch4"><path d="M51.08 111.18H59.199999999999996V143.56H51.08z" transform="rotate(180 55.14 127.37)" style="fill: rgb(103, 172, 91);"/></g><g id="__id12_sb8ja45ch4"><path d="M155,99.25H142.33a1.68,1.68,0,0,1-1.68-1.67V35.16a1.68,1.68,0,0,1,1.68-1.67H155a1.67,1.67,0,0,1,1.67,1.67V97.58A1.67,1.67,0,0,1,155,99.25Zm-11-3.34h9.29V36.83H144Z" style="fill: rgb(26, 26, 26);"/></g><g id="__id13_sb8ja45ch4"><path d="M109.12,115.33H96.94a1.67,1.67,0,0,1-1.67-1.67V87.11a1.67,1.67,0,0,1,1.67-1.67h12.18a1.67,1.67,0,0,1,1.68,1.67v26.55A1.68,1.68,0,0,1,109.12,115.33ZM98.61,112h8.84V88.78H98.61Z" style="fill: rgb(26, 26, 26);"/></g><g id="__id14_sb8ja45ch4"><path d="M84.16,143.5H72a1.67,1.67,0,0,1-1.68-1.67V80.43A1.68,1.68,0,0,1,72,78.76H84.16a1.67,1.67,0,0,1,1.67,1.67v61.4A1.67,1.67,0,0,1,84.16,143.5Zm-10.51-3.34h8.84v-58H73.65Z" style="fill: rgb(26, 26, 26);"/></g><g id="__id15_sb8ja45ch4"><path d="M59.2,145.23H47a1.68,1.68,0,0,1-1.68-1.67V111.18A1.68,1.68,0,0,1,47,109.51H59.2a1.67,1.67,0,0,1,1.67,1.67v32.38A1.67,1.67,0,0,1,59.2,145.23Zm-10.51-3.34h8.84v-29H48.69Z" style="fill: rgb(26, 26, 26);"/></g><g id="__id16_sb8ja45ch4"><path d="M124.31,133.79h0a1.67,1.67,0,0,1-1.67-1.67l.27-75a1.67,1.67,0,0,1,1.67-1.67h0a1.67,1.67,0,0,1,1.66,1.68l-.26,75A1.67,1.67,0,0,1,124.31,133.79Z" style="fill: rgb(26, 26, 26);"/></g><g id="__id17_sb8ja45ch4"><path d="M131,72.94H118.8a1.67,1.67,0,0,1,0-3.34H131a1.67,1.67,0,1,1,0,3.34Z" style="fill: rgb(26, 26, 26);"/></g><g id="__id18_sb8ja45ch4"><path d="M165.46,169.85H35.79a1.67,1.67,0,0,1-1.67-1.67V31.58a1.67,1.67,0,0,1,3.34,0V166.5h128a1.68,1.68,0,1,1,0,3.35Z" style="fill: rgb(26, 26, 26);"/></g></svg>